<svg width="38" height="38" viewBox="0 0 38 38" fill="none" xmlns="http://www.w3.org/2000/svg">
<g clip-path="url(#clip0_1345_206)">
<path d="M19 0C8.52365 0 0 8.52373 0 19C0 29.4763 8.52365 38 19 38C24.0748 38 28.9087 35.9536 32.4973 32.3643C33.0937 31.7678 33.0264 30.7669 32.4215 30.1732L29.4229 27.2188C30.0695 26.333 30.1545 25.2556 29.6211 24.2321C28.8931 22.8345 27.8119 21.7161 26.4095 20.9093C25.8685 20.5968 25.3573 20.4441 24.8482 20.4447C24.65 20.4447 24.45 20.4689 24.2555 20.5149C23.6084 20.6726 22.9861 20.9757 22.3538 21.4409C22.1557 21.5894 21.911 21.6634 21.6296 21.6634C21.2863 21.6634 20.9148 21.5453 20.6602 21.3564C18.813 19.9795 17.2467 18.4119 15.8698 16.566C15.6002 16.2028 15.3847 15.4127 15.7841 14.8705C16.2512 14.2389 16.5531 13.6179 16.7101 12.9695C16.8791 12.2708 16.7499 11.5664 16.317 10.8181C15.5096 9.41315 14.391 8.33319 12.9936 7.60456C12.5409 7.36866 12.0775 7.24797 11.6154 7.24797C10.8453 7.24797 10.1236 7.58408 9.52983 8.21636C8.98401 8.79764 8.50132 9.41323 7.94492 10.1579C7.43503 10.8398 7.4773 11.6274 7.51331 12.3216L7.51454 12.336C7.57736 13.218 7.90652 14.2601 8.52126 15.5221C9.56035 17.6599 11.0361 19.6896 13.0329 21.7268C13.4433 22.1459 15.0787 23.7819 15.4986 24.1924C17.5369 26.1896 19.5665 27.6654 21.7031 28.7045C22.9657 29.3188 24.0079 29.648 24.8893 29.7112L24.9041 29.7119C25.0856 29.7205 25.2793 29.7304 25.4681 29.7304C25.9184 29.7304 26.4954 29.6758 27.0159 29.3118L28.9889 31.256C26.1736 33.5588 22.6857 34.8202 19.0002 34.8202C10.2772 34.8202 3.18016 27.7232 3.18016 19.0002C3.18016 10.2771 10.2772 3.18001 19.0002 3.18001C27.7232 3.18001 34.8204 10.2771 34.8204 19.0002C34.8204 19.8783 35.5322 20.5901 36.4103 20.5901C37.2885 20.5901 38.0003 19.8783 38.0003 19.0002C38 8.52373 29.4763 0 19 0Z" fill="#45B21D"/>
</g>
<defs>
<clipPath id="clip0_1345_206">
<rect width="38" height="38" fill="white"/>
</clipPath>
</defs>
</svg>
