<svg width="24" height="24" viewBox="0 0 24 24" fill="none" xmlns="http://www.w3.org/2000/svg">
<path fill-rule="evenodd" clip-rule="evenodd" d="M5.94997 4.25358C5.94997 4.25358 5.94997 4.25358 5.94997 4.25358L5.01962 6.11429H18.9804L18.05 4.25359C18.05 4.25359 18.05 4.25358 18.05 4.25358C17.8322 3.81799 17.3871 3.54286 16.9 3.54286H7.09996C6.61296 3.54286 6.16777 3.818 5.94997 4.25358ZM19.4571 7.65714H4.54286V13.0571C4.54286 14.6837 4.6161 15.9173 4.81769 16.8647C5.01685 17.8006 5.32895 18.397 5.76516 18.8096C6.2059 19.2264 6.85511 19.5332 7.87769 19.7294C8.90566 19.9266 10.2433 20 12 20C13.7567 20 15.0943 19.9266 16.1223 19.7294C17.1449 19.5332 17.7941 19.2264 18.2348 18.8096C18.671 18.397 18.9831 17.8006 19.1823 16.8647C19.3839 15.9173 19.4571 14.6837 19.4571 13.0571V7.65714ZM4.57 3.56359C5.04915 2.60531 6.02857 2 7.09996 2H16.9C17.9715 2 18.9508 2.60531 19.43 3.56358L19.43 3.5636L20.9186 6.54072C20.9721 6.64784 21 6.76595 21 6.88571V13.0571C21 14.705 20.9282 16.0728 20.6914 17.1858C20.4521 18.3102 20.0324 19.2331 19.295 19.9305C18.5621 20.6236 17.596 21.0176 16.413 21.2446C15.2355 21.4705 13.7775 21.5429 12 21.5429C10.2225 21.5429 8.76449 21.4705 7.58695 21.2446C6.404 21.0176 5.43784 20.6236 4.70499 19.9305C3.9676 19.2331 3.54788 18.3102 3.30862 17.1858C3.07178 16.0728 3 14.705 3 13.0571V6.88571C3 6.76595 3.02788 6.64784 3.08144 6.54072L4.57 3.56359L4.57 3.56359ZM8.91429 10.2286C9.34033 10.2286 9.68571 10.574 9.68571 11C9.68571 12.2782 10.7218 13.3143 12 13.3143C13.2782 13.3143 14.3143 12.2782 14.3143 11C14.3143 10.574 14.6597 10.2286 15.0857 10.2286C15.5118 10.2286 15.8571 10.574 15.8571 11C15.8571 13.1303 14.1303 14.8571 12 14.8571C9.86971 14.8571 8.14286 13.1303 8.14286 11C8.14286 10.574 8.48824 10.2286 8.91429 10.2286Z" fill="#9A9EA8"/>
</svg>
