<svg width="24" height="24" viewBox="0 0 24 24" fill="none" xmlns="http://www.w3.org/2000/svg">
<path d="M15.4873 4.00031C14.7626 4.00776 14.0192 4.14929 13.2919 4.43958L13.2589 4.45359L13.2259 4.4706C12.7649 4.70538 12.3447 4.99908 11.9711 5.34715C9.96079 3.60839 6.76023 3.48219 4.57059 5.45621L4.54857 5.47622L4.52856 5.49724C2.60771 7.50358 2.6527 10.5934 3.8041 13.0349L3.8141 13.0539L3.82411 13.0739C5.18017 15.585 7.71235 17.7187 10.0199 19.4728L10.0259 19.4778L10.0309 19.4819C10.1794 19.5907 10.4346 19.8157 10.7293 20.0372C11.024 20.2587 11.3569 20.5014 11.844 20.5945L11.9531 20.6155L12.0632 20.6065C12.5744 20.5624 12.7749 20.3737 13.1108 20.1623C13.4467 19.9508 13.8185 19.6825 14.2005 19.3888C14.9535 18.8099 15.7327 18.1426 16.2458 17.6667C16.2524 17.6606 16.2632 17.6518 16.2698 17.6457C16.2708 17.6448 16.2717 17.6436 16.2728 17.6427C17.3535 16.7205 18.4241 15.6573 19.3317 14.4067C19.3319 14.4064 19.3324 14.4061 19.3326 14.4057C19.3343 14.4034 19.3359 14.401 19.3376 14.3987C20.777 12.4608 21.4752 9.84931 20.6424 7.27636L20.6274 7.23032L20.6074 7.18729C19.6725 5.16598 17.6615 3.97797 15.4873 4.00031ZM15.5133 5.58329C17.0798 5.54726 18.4529 6.38606 19.1345 7.82066C19.7644 9.82912 19.2199 11.8755 18.0469 13.4511L18.0439 13.4551L18.0409 13.4591C17.2237 14.5868 16.234 15.574 15.2081 16.447L15.1951 16.459L15.1821 16.471C14.7202 16.901 13.9382 17.5708 13.2239 18.12C12.8667 18.3946 12.5243 18.64 12.2583 18.8074C12.1583 18.8704 12.0632 18.9133 11.9851 18.9465C11.9031 18.9017 11.799 18.8386 11.691 18.7574C11.4735 18.594 11.2419 18.3853 10.9895 18.1991C10.9856 18.1961 10.9815 18.1931 10.9775 18.19C8.73811 16.4867 6.37927 14.4185 5.24499 12.3334C4.32412 10.3661 4.36431 8.01146 5.66524 6.62792C7.43413 5.05514 10.0621 5.39707 11.3727 7.01116L12.0111 7.79665L12.6285 6.99515C12.9838 6.53431 13.4077 6.182 13.9223 5.91449C14.4618 5.70376 14.9977 5.59514 15.5133 5.58329Z" fill="#9A9EA8"/>
</svg>
