<svg width="20" height="20" viewBox="0 0 20 20" fill="none" xmlns="http://www.w3.org/2000/svg">
<path fill-rule="evenodd" clip-rule="evenodd" d="M10.9964 17.5221C12.856 15.8077 16.6654 11.8218 16.6654 7.93906C16.6654 4.47509 13.6806 1.66699 9.9987 1.66699C6.3168 1.66699 3.33203 4.47509 3.33203 7.93906C3.33203 11.8218 7.14138 15.8077 9.00101 17.5221C9.5721 18.0486 10.4253 18.0486 10.9964 17.5221ZM9.9987 10.866C11.3794 10.866 12.4987 9.74278 12.4987 8.35719C12.4987 6.97161 11.3794 5.84837 9.9987 5.84837C8.61799 5.84837 7.4987 6.97161 7.4987 8.35719C7.4987 9.74278 8.61799 10.866 9.9987 10.866Z" fill="#45B21D"/>
</svg>
