<svg width="17" height="20" viewBox="0 0 17 20" fill="none" xmlns="http://www.w3.org/2000/svg">
<g clip-path="url(#clip0_1345_245)">
<path d="M13.2923 8.75C13.6391 8.85417 13.9693 8.99554 14.2829 9.17411C14.5965 9.35268 14.9248 9.62426 15.2679 9.98884C15.611 10.3534 15.9043 10.7831 16.1478 11.2779C16.3913 11.7727 16.5942 12.4126 16.7565 13.1975C16.9188 13.9825 17 14.8624 17 15.8371C17 16.9829 16.6311 17.9632 15.8932 18.7779C15.1554 19.5926 14.2663 20 13.2259 20H3.77409C2.73372 20 1.84462 19.5926 1.10677 18.7779C0.368924 17.9632 0 16.9829 0 15.8371C0 14.8624 0.0811632 13.9825 0.24349 13.1975C0.405816 12.4126 0.608724 11.7727 0.852214 11.2779C1.0957 10.7831 1.389 10.3534 1.7321 9.98884C2.0752 9.62426 2.40354 9.35268 2.71712 9.17411C3.03071 8.99554 3.36089 8.85417 3.70768 8.75C3.12478 7.81994 2.83333 6.80804 2.83333 5.71429C2.83333 4.94048 2.98275 4.20201 3.28158 3.49888C3.5804 2.79576 3.98438 2.1875 4.49349 1.67411C5.0026 1.16071 5.60579 0.753348 6.30306 0.452009C7.00033 0.15067 7.73264 0 8.5 0C9.26736 0 9.99967 0.15067 10.6969 0.452009C11.3942 0.753348 11.9974 1.16071 12.5065 1.67411C13.0156 2.1875 13.4196 2.79576 13.7184 3.49888C14.0173 4.20201 14.1667 4.94048 14.1667 5.71429C14.1667 6.80804 13.8752 7.81994 13.2923 8.75ZM8.5 1.42857C7.32682 1.42857 6.3252 1.8471 5.49512 2.68415C4.66504 3.52121 4.25 4.53125 4.25 5.71429C4.25 6.89732 4.66504 7.90737 5.49512 8.74442C6.3252 9.58147 7.32682 10 8.5 10C9.67318 10 10.6748 9.58147 11.5049 8.74442C12.335 7.90737 12.75 6.89732 12.75 5.71429C12.75 4.53125 12.335 3.52121 11.5049 2.68415C10.6748 1.8471 9.67318 1.42857 8.5 1.42857ZM13.2259 18.5714C13.8752 18.5714 14.4304 18.3054 14.8916 17.7734C15.3528 17.2414 15.5833 16.596 15.5833 15.8371C15.5833 14.0588 15.2937 12.6562 14.7145 11.6295C14.1353 10.6027 13.3034 10.0632 12.2188 10.0112C11.1489 10.9561 9.90929 11.4286 8.5 11.4286C7.09071 11.4286 5.85113 10.9561 4.78125 10.0112C3.69661 10.0632 2.86469 10.6027 2.28548 11.6295C1.70627 12.6562 1.41667 14.0588 1.41667 15.8371C1.41667 16.596 1.64724 17.2414 2.1084 17.7734C2.56955 18.3054 3.12478 18.5714 3.77409 18.5714H13.2259Z" fill="#9A9EA8"/>
</g>
<defs>
<clipPath id="clip0_1345_245">
<rect width="17" height="20" fill="white"/>
</clipPath>
</defs>
</svg>
