<svg width="18" height="18" viewBox="0 0 18 18" fill="none" xmlns="http://www.w3.org/2000/svg">
<g clip-path="url(#clip0_1345_232)">
<path d="M9.00182 1.81148e-06C6.90335 -0.00132902 4.87038 0.730662 3.25443 2.06941C1.63847 3.40816 0.541117 5.2695 0.152106 7.33159C-0.236906 9.39368 0.106882 11.5269 1.12402 13.3624C2.14117 15.1978 3.76772 16.6202 5.72244 17.3835C5.64369 16.6714 5.57169 15.5768 5.75282 14.7994C5.91707 14.0963 6.80807 10.3253 6.80807 10.3253C6.80807 10.3253 6.53919 9.78638 6.53919 8.98988C6.53919 7.73775 7.26482 6.804 8.16819 6.804C8.93544 6.804 9.30669 7.38 9.30669 8.07188C9.30669 8.84363 8.81507 9.99788 8.56082 11.0678C8.34932 11.9633 9.01082 12.6945 9.89394 12.6945C11.4937 12.6945 12.7233 11.007 12.7233 8.5725C12.7233 6.41813 11.1742 4.91175 8.96357 4.91175C6.40307 4.91175 4.90007 6.83213 4.90007 8.81663C4.90007 9.59063 5.19819 10.4198 5.56944 10.8709C5.60141 10.9049 5.62402 10.9466 5.63506 10.9919C5.6461 11.0373 5.6452 11.0847 5.63244 11.1296C5.56382 11.4131 5.41194 12.0251 5.38269 12.15C5.34332 12.3143 5.25219 12.3491 5.08119 12.2704C3.95619 11.7473 3.25419 10.1036 3.25419 8.78288C3.25419 5.9445 5.31744 3.33788 9.20094 3.33788C12.3228 3.33788 14.7494 5.562 14.7494 8.53538C14.7494 11.637 12.7931 14.1334 10.0796 14.1334C9.16719 14.1334 8.30994 13.6598 8.01632 13.0995L7.45607 15.2393C7.25244 16.0211 6.70344 17.001 6.33669 17.5984C7.57416 17.981 8.87964 18.092 10.1639 17.9238C11.4482 17.7556 12.6811 17.3122 13.7783 16.6238C14.8755 15.9354 15.8112 15.0183 16.5215 13.9352C17.2317 12.852 17.6998 11.6283 17.8938 10.3476C18.0877 9.06694 18.003 7.7595 17.6453 6.5146C17.2876 5.2697 16.6654 4.11667 15.8212 3.13429C14.977 2.15191 13.9307 1.36332 12.7538 0.822393C11.5769 0.281466 10.2971 0.000947591 9.00182 1.81148e-06Z" fill="#C52233"/>
</g>
<defs>
<clipPath id="clip0_1345_232">
<rect width="18" height="18" fill="white"/>
</clipPath>
</defs>
</svg>
