<svg width="12" height="12" viewBox="0 0 12 12" fill="none" xmlns="http://www.w3.org/2000/svg">
<path d="M11.0499 5.65685C11.0499 5.4883 10.9829 5.32666 10.8637 5.20748C10.7445 5.0883 10.5829 5.02133 10.4144 5.0213L6.2918 5.0213L6.2918 0.898751C6.29178 0.7302 6.22481 0.568559 6.10563 0.449375C5.98644 0.330192 5.8248 0.263224 5.65625 0.263198C5.4877 0.263224 5.32606 0.330192 5.20687 0.449375C5.08769 0.568559 5.02072 0.7302 5.0207 0.898751L5.0207 5.0213L0.898146 5.0213C0.729595 5.02133 0.567955 5.0883 0.448771 5.20748C0.329587 5.32666 0.262619 5.4883 0.262594 5.65685C0.262619 5.82541 0.329587 5.98705 0.448771 6.10623C0.567955 6.22541 0.729595 6.29238 0.898146 6.29241L5.0207 6.29241L5.0207 10.415C5.02072 10.5835 5.08769 10.7451 5.20687 10.8643C5.32606 10.9835 5.4877 11.0505 5.65625 11.0505C5.8248 11.0505 5.98644 10.9835 6.10563 10.8643C6.22481 10.7451 6.29178 10.5835 6.2918 10.415L6.2918 6.29241L10.4144 6.29241C10.5829 6.29238 10.7445 6.22541 10.8637 6.10623C10.9829 5.98705 11.0499 5.82541 11.0499 5.65685Z" fill="#7D7D7D"/>
</svg>
