<svg width="24" height="24" viewBox="0 0 24 24" fill="none" xmlns="http://www.w3.org/2000/svg">
<path fill-rule="evenodd" clip-rule="evenodd" d="M16.6381 15.2874C17.8254 13.7567 18.385 11.8311 18.203 9.90245C18.021 7.97378 17.111 6.18689 15.6583 4.90531C14.2055 3.62373 12.3191 2.94373 10.3828 3.00365C8.4465 3.06357 6.60574 3.8589 5.23502 5.22785C3.8631 6.59775 3.06517 8.43922 3.00382 10.377C2.94247 12.3148 3.62232 14.2031 4.90484 15.657C6.18735 17.1109 7.976 18.0211 9.90629 18.2021C11.8366 18.383 13.7632 17.8212 15.2936 16.6309L15.3346 16.6738L19.3737 20.7138C19.4621 20.8023 19.5671 20.8724 19.6827 20.9203C19.7983 20.9682 19.9222 20.9928 20.0473 20.9928C20.1724 20.9928 20.2963 20.9682 20.4119 20.9203C20.5275 20.8724 20.6325 20.8023 20.721 20.7138C20.8094 20.6253 20.8796 20.5203 20.9275 20.4047C20.9754 20.2891 21 20.1653 21 20.0401C21 19.915 20.9754 19.7911 20.9275 19.6756C20.8796 19.56 20.8094 19.455 20.721 19.3665L16.6809 15.3274C16.667 15.3137 16.6527 15.3004 16.6381 15.2874ZM14.6614 6.57516C15.199 7.10406 15.6266 7.73417 15.9194 8.42914C16.2123 9.12411 16.3646 9.87019 16.3677 10.6243C16.3708 11.3785 16.2245 12.1258 15.9373 12.8231C15.6501 13.5204 15.2277 14.154 14.6944 14.6873C14.1612 15.2205 13.5276 15.6429 12.8303 15.9301C12.1329 16.2173 11.3856 16.3636 10.6315 16.3605C9.87736 16.3574 9.13128 16.2051 8.43631 15.9122C7.74134 15.6194 7.11123 15.1918 6.58233 14.6542C5.52535 13.5799 4.93571 12.1314 4.94185 10.6243C4.94799 9.11724 5.5494 7.67361 6.61509 6.60792C7.68078 5.54223 9.1244 4.94082 10.6315 4.93468C12.1386 4.92854 13.5871 5.51818 14.6614 6.57516Z" fill="#9A9EA8"/>
</svg>
